<svg width="115" height="19" viewBox="0 0 115 19" fill="none" xmlns="http://www.w3.org/2000/svg">
<path d="M-4.44055e-05 18.4517V0.997114H11.7613V4.03973H3.6903V8.19882H11.1562V11.2414H3.6903V15.409H11.7954V18.4517H-4.44055e-05ZM18.3812 5.36075L20.7846 9.93746L23.2477 5.36075H26.9721L23.1795 11.9062L27.0744 18.4517H23.367L20.7846 13.9261L18.2448 18.4517H14.4948L18.3812 11.9062L14.6312 5.36075H18.3812ZM35.2944 18.7073C33.9535 18.7073 32.8 18.4233 31.8341 17.8551C30.8739 17.2812 30.1353 16.4858 29.6182 15.4687C29.1069 14.4517 28.8512 13.2812 28.8512 11.9573C28.8512 10.6164 29.1097 9.4403 29.6267 8.42893C30.1495 7.41189 30.891 6.61927 31.8512 6.05109C32.8114 5.47723 33.9535 5.1903 35.2773 5.1903C36.4194 5.1903 37.4194 5.39768 38.2773 5.81245C39.1353 6.22723 39.8142 6.80961 40.3142 7.55961C40.8142 8.30961 41.0898 9.1903 41.141 10.2017H37.7148C37.6182 9.54825 37.3625 9.02268 36.9478 8.62496C36.5387 8.22155 36.0017 8.01984 35.337 8.01984C34.7745 8.01984 34.283 8.17325 33.8625 8.48007C33.4478 8.78121 33.1239 9.22155 32.891 9.80109C32.658 10.3806 32.5415 11.0823 32.5415 11.9062C32.5415 12.7414 32.6552 13.4517 32.8824 14.0369C33.1154 14.6221 33.4421 15.0681 33.8625 15.375C34.283 15.6818 34.7745 15.8352 35.337 15.8352C35.7517 15.8352 36.1239 15.75 36.4535 15.5795C36.7887 15.409 37.0642 15.1619 37.2802 14.838C37.5017 14.5085 37.6466 14.1136 37.7148 13.6534H41.141C41.0841 14.6534 40.8114 15.534 40.3228 16.2954C39.8398 17.0511 39.1722 17.642 38.3199 18.0681C37.4677 18.4943 36.4591 18.7073 35.2944 18.7073ZM47.8162 0.997114V18.4517H44.1855V0.997114H47.8162ZM59.8395 12.8778V5.36075H63.4702V18.4517H59.9844V16.0738H59.848C59.5525 16.8409 59.0611 17.4573 58.3736 17.9233C57.6917 18.3892 56.8594 18.6221 55.8764 18.6221C55.0014 18.6221 54.2315 18.4233 53.5667 18.0255C52.902 17.6278 52.3821 17.0625 52.0071 16.3295C51.6378 15.5965 51.4503 14.7187 51.4446 13.696V5.36075H55.0753V13.0483C55.081 13.821 55.2883 14.4318 55.6974 14.8806C56.1065 15.3295 56.6548 15.5539 57.3423 15.5539C57.7798 15.5539 58.1889 15.4545 58.5696 15.2556C58.9503 15.0511 59.2571 14.75 59.49 14.3522C59.7287 13.9545 59.8452 13.463 59.8395 12.8778ZM77.9863 9.09371L74.6625 9.29825C74.6056 9.01416 74.4835 8.75848 74.296 8.53121C74.1085 8.29825 73.8613 8.11359 73.5545 7.97723C73.2534 7.83518 72.8926 7.76416 72.4721 7.76416C71.9096 7.76416 71.4352 7.88348 71.0488 8.12211C70.6625 8.35507 70.4693 8.66757 70.4693 9.05961C70.4693 9.37211 70.5943 9.63632 70.8443 9.85223C71.0943 10.0681 71.5232 10.2414 72.1312 10.3721L74.5005 10.8494C75.7732 11.1108 76.7221 11.5312 77.3471 12.1108C77.9721 12.6903 78.2846 13.4517 78.2846 14.3948C78.2846 15.2528 78.0318 16.0056 77.5261 16.6534C77.0261 17.3011 76.3386 17.8068 75.4636 18.1704C74.5943 18.5284 73.5914 18.7073 72.4551 18.7073C70.7221 18.7073 69.3414 18.3465 68.313 17.625C67.2903 16.8977 66.6909 15.909 66.5147 14.659L70.0857 14.4715C70.1937 15 70.4551 15.4034 70.8698 15.6818C71.2846 15.9545 71.8159 16.0909 72.4636 16.0909C73.1 16.0909 73.6113 15.9687 73.9977 15.7244C74.3897 15.4744 74.5886 15.1534 74.5943 14.7613C74.5886 14.4318 74.4494 14.1619 74.1767 13.9517C73.9039 13.7358 73.4835 13.571 72.9153 13.4573L70.6482 13.0056C69.3698 12.75 68.4181 12.3068 67.7931 11.6761C67.1738 11.0454 66.8642 10.2414 66.8642 9.26416C66.8642 8.42325 67.0914 7.69882 67.546 7.09086C68.0062 6.48291 68.6511 6.01416 69.4806 5.68461C70.3159 5.35507 71.2931 5.1903 72.4125 5.1903C74.0659 5.1903 75.367 5.53973 76.3159 6.23859C77.2704 6.93746 77.8272 7.88916 77.9863 9.09371ZM81.2908 18.4517V5.36075H84.9215V18.4517H81.2908ZM83.1147 3.67325C82.5749 3.67325 82.1119 3.49427 81.7255 3.13632C81.3448 2.77268 81.1545 2.33802 81.1545 1.83234C81.1545 1.33234 81.3448 0.903364 81.7255 0.54541C82.1119 0.181773 82.5749 -4.52995e-05 83.1147 -4.52995e-05C83.6545 -4.52995e-05 84.1147 0.181773 84.4954 0.54541C84.8817 0.903364 85.0749 1.33234 85.0749 1.83234C85.0749 2.33802 84.8817 2.77268 84.4954 3.13632C84.1147 3.49427 83.6545 3.67325 83.1147 3.67325ZM100.754 5.36075L96.1777 18.4517H92.0868L87.5101 5.36075H91.3454L94.0641 14.7272H94.2005L96.9107 5.36075H100.754ZM108.876 18.7073C107.53 18.7073 106.371 18.4346 105.399 17.8892C104.433 17.338 103.689 16.5596 103.166 15.5539C102.643 14.5426 102.382 13.3465 102.382 11.9659C102.382 10.6193 102.643 9.43746 103.166 8.42041C103.689 7.40336 104.425 6.61075 105.374 6.04257C106.328 5.47439 107.447 5.1903 108.732 5.1903C109.595 5.1903 110.399 5.3295 111.143 5.60791C111.893 5.88064 112.547 6.29257 113.104 6.84371C113.666 7.39484 114.104 8.08802 114.416 8.92325C114.729 9.7528 114.885 10.7244 114.885 11.838V12.8352H103.831V10.5852H111.467C111.467 10.0625 111.354 9.59939 111.126 9.19598C110.899 8.79257 110.584 8.47723 110.18 8.24996C109.783 8.017 109.32 7.90052 108.791 7.90052C108.24 7.90052 107.751 8.02836 107.325 8.28405C106.905 8.53405 106.575 8.87211 106.337 9.29825C106.098 9.71871 105.976 10.1875 105.97 10.7045V12.8437C105.97 13.4914 106.09 14.0511 106.328 14.5227C106.572 14.9943 106.916 15.3579 107.359 15.6136C107.803 15.8693 108.328 15.9971 108.936 15.9971C109.34 15.9971 109.709 15.9403 110.044 15.8267C110.379 15.713 110.666 15.5426 110.905 15.3153C111.143 15.088 111.325 14.8096 111.45 14.4801L114.808 14.7017C114.638 15.5085 114.288 16.213 113.76 16.8153C113.237 17.4119 112.561 17.8778 111.732 18.213C110.908 18.5426 109.956 18.7073 108.876 18.7073Z" fill="black"/>
</svg>
