<svg width="15" height="15" viewBox="0 0 15 15" fill="none" xmlns="http://www.w3.org/2000/svg">
<path d="M13.9462 6.83186C15.0169 6.02197 14.4441 4.3153 13.1016 4.3153H10.6724C10.0585 4.3153 9.51621 3.91533 9.33488 3.32881L8.61073 0.9865C8.20409 -0.328818 6.3423 -0.328818 5.93566 0.986499L5.21151 3.32881C5.03018 3.91533 4.48788 4.3153 3.87397 4.3153H1.4028C0.0646122 4.3153 -0.510888 6.01286 0.551411 6.82666L2.66789 8.44805C3.13204 8.80362 3.32634 9.41021 3.15515 9.96929L2.38615 12.4809C1.98735 13.7833 3.49486 14.8305 4.5762 14.0021L6.4218 12.5882C6.92416 12.2034 7.62222 12.2034 8.12458 12.5882L9.95388 13.9896C11.0368 14.8192 12.5457 13.768 12.1428 12.4647L11.3631 9.94283C11.1891 9.37988 11.3862 8.76821 11.8561 8.41275L13.9462 6.83186Z" fill="#FFAD33"/>
</svg>
