<svg width="15" height="15" viewBox="0 0 15 15" fill="none" xmlns="http://www.w3.org/2000/svg">
<path opacity="0.25" d="M13.9462 6.83185C15.0169 6.02196 14.4441 4.31529 13.1016 4.31529H10.6724C10.0585 4.31529 9.51621 3.91532 9.33488 3.3288L8.61073 0.986488C8.20409 -0.328829 6.3423 -0.328829 5.93566 0.986488L5.21151 3.3288C5.03018 3.91532 4.48788 4.31529 3.87397 4.31529H1.4028C0.0646122 4.31529 -0.510888 6.01285 0.551411 6.82665L2.66789 8.44804C3.13204 8.80361 3.32634 9.4102 3.15515 9.96928L2.38615 12.4808C1.98735 13.7833 3.49486 14.8305 4.5762 14.0021L6.4218 12.5882C6.92416 12.2034 7.62222 12.2034 8.12458 12.5882L9.95388 13.9896C11.0368 14.8192 12.5457 13.768 12.1428 12.4647L11.3631 9.94281C11.1891 9.37987 11.3862 8.7682 11.8561 8.41274L13.9462 6.83185Z" fill="black"/>
</svg>
